<svg width="114" height="25" viewBox="0 0 114 25" fill="none" xmlns="http://www.w3.org/2000/svg">
<path d="M6.83696 7.175C6.88705 7.425 6.9121 7.66667 6.9121 7.9C6.9121 8.11667 6.88705 8.35 6.83696 8.6L3.6564 8.575V16.975C3.6564 17.675 3.98197 18.025 4.63311 18.025H6.53644C6.65331 18.3083 6.71174 18.5917 6.71174 18.875C6.71174 19.1583 6.69505 19.3333 6.66166 19.4C5.89365 19.5 5.10059 19.55 4.28249 19.55C2.66299 19.55 1.85324 18.8583 1.85324 17.475V8.575L0.0751314 8.6C0.0250438 8.35 0 8.11667 0 7.9C0 7.66667 0.0250438 7.425 0.0751314 7.175L1.85324 7.2V4.575C1.85324 4.125 1.92003 3.80833 2.05359 3.625C2.18716 3.425 2.44595 3.325 2.82995 3.325H3.50614L3.6564 3.475V7.225L6.83696 7.175Z" fill="#E8E8E8"/>
<path d="M18.9554 7.3L15.5244 19.025C14.89 21.175 14.2138 22.6917 13.4959 23.575C12.778 24.4583 11.7011 24.9 10.2652 24.9C9.53061 24.9 8.85443 24.7917 8.23668 24.575C8.18659 24.1083 8.32016 23.6583 8.63738 23.225C9.15495 23.4083 9.70592 23.5 10.2903 23.5C11.1752 23.5 11.8513 23.2 12.3188 22.6C12.7863 22 13.2121 21.0667 13.5961 19.8L13.6712 19.55C13.2371 19.5167 12.9032 19.4167 12.6694 19.25C12.4524 19.0833 12.2687 18.775 12.1185 18.325L8.61234 7.325C9.12991 7.10833 9.49722 7 9.71426 7C10.1984 7 10.524 7.29167 10.691 7.875L12.6694 14.15C12.7362 14.35 13.1202 15.65 13.8215 18.05C13.8548 18.1667 13.9383 18.225 14.0719 18.225L17.1272 7.175C17.3443 7.10833 17.6281 7.075 17.9787 7.075C18.346 7.075 18.6549 7.125 18.9053 7.225L18.9554 7.3Z" fill="#E8E8E8"/>
<path d="M23.7676 18.625V23.575C23.7676 24.025 23.7008 24.3417 23.5672 24.525C23.4336 24.725 23.1665 24.825 22.7658 24.825H22.0896L21.9394 24.675V7.25L22.0896 7.1H22.7408C23.1415 7.1 23.4086 7.20833 23.5422 7.425C23.6924 7.625 23.7676 7.95833 23.7676 8.425V8.55C24.7693 7.43333 25.9631 6.875 27.3488 6.875C28.768 6.875 29.8365 7.45 30.5544 8.6C31.2724 9.73333 31.6313 11.3083 31.6313 13.325C31.6313 14.3083 31.4978 15.1917 31.2306 15.975C30.9802 16.7583 30.6379 17.425 30.2038 17.975C29.7864 18.5083 29.3023 18.925 28.7513 19.225C28.2003 19.5083 27.6327 19.65 27.0483 19.65C25.8963 19.65 24.8027 19.3083 23.7676 18.625ZM23.7676 10.5V16.925C24.786 17.675 25.746 18.05 26.6476 18.05C27.5492 18.05 28.2922 17.65 28.8765 16.85C29.4609 16.05 29.753 14.8417 29.753 13.225C29.753 12.425 29.6779 11.7333 29.5276 11.15C29.3941 10.55 29.2104 10.0583 28.9767 9.675C28.7429 9.275 28.4675 8.98333 28.1502 8.8C27.8497 8.6 27.5241 8.5 27.1735 8.5C26.5057 8.5 25.8712 8.675 25.2702 9.025C24.6691 9.375 24.1683 9.86667 23.7676 10.5Z" fill="#E8E8E8"/>
<path d="M44.3127 13.875H36.5491C36.6326 16.7083 37.7095 18.125 39.7798 18.125C40.9151 18.125 42.1255 17.775 43.4111 17.075C43.7784 17.4083 44.0038 17.8333 44.0873 18.35C42.7182 19.2833 41.1822 19.75 39.4792 19.75C38.6111 19.75 37.8681 19.5917 37.2503 19.275C36.6326 18.9417 36.1234 18.4917 35.7227 17.925C35.3387 17.3417 35.0548 16.6583 34.8712 15.875C34.6875 15.0917 34.5957 14.2333 34.5957 13.3C34.5957 12.35 34.7042 11.4833 34.9213 10.7C35.155 9.91667 35.4889 9.24167 35.923 8.675C36.3571 8.10833 36.8747 7.66667 37.4757 7.35C38.0935 7.03333 38.7947 6.875 39.5794 6.875C40.3474 6.875 41.032 7.01667 41.633 7.3C42.2508 7.56667 42.76 7.94167 43.1607 8.425C43.5781 8.89167 43.8953 9.45833 44.1123 10.125C44.3294 10.775 44.4379 11.475 44.4379 12.225C44.4379 12.525 44.4212 12.8167 44.3878 13.1C44.3711 13.3667 44.3461 13.625 44.3127 13.875ZM36.5491 12.45H42.5596V12.125C42.5596 10.975 42.3175 10.05 41.8334 9.35C41.3492 8.65 40.6229 8.3 39.6545 8.3C38.7029 8.3 37.9599 8.675 37.4256 9.425C36.9081 10.175 36.6159 11.1833 36.5491 12.45Z" fill="#E8E8E8"/>
<path d="M46.8905 18.575C46.9071 18.2083 47.0073 17.8083 47.191 17.375C47.3913 16.925 47.6167 16.575 47.8672 16.325C49.1861 17.0417 50.3465 17.4 51.3483 17.4C51.8992 17.4 52.3417 17.2917 52.6756 17.075C53.0262 16.8583 53.2015 16.5667 53.2015 16.2C53.2015 15.6167 52.7507 15.15 51.8491 14.8L50.4467 14.275C48.343 13.5083 47.2912 12.2833 47.2912 10.6C47.2912 10 47.3997 9.46667 47.6167 9C47.8505 8.51667 48.1677 8.10833 48.5684 7.775C48.9858 7.425 49.4783 7.15833 50.046 6.975C50.6136 6.79167 51.2481 6.7 51.9493 6.7C52.2665 6.7 52.6171 6.725 53.0011 6.775C53.4018 6.825 53.8025 6.9 54.2033 7C54.604 7.08333 54.988 7.18333 55.3553 7.3C55.7226 7.41667 56.0398 7.54167 56.3069 7.675C56.3069 8.09167 56.2235 8.525 56.0565 8.975C55.8895 9.425 55.6641 9.75833 55.3803 9.975C54.0613 9.39167 52.9177 9.1 51.9493 9.1C51.5152 9.1 51.1729 9.20833 50.9225 9.425C50.6721 9.625 50.5469 9.89167 50.5469 10.225C50.5469 10.7417 50.9642 11.15 51.799 11.45L53.3267 12C54.4286 12.3833 55.2467 12.9083 55.781 13.575C56.3153 14.2417 56.5824 15.0167 56.5824 15.9C56.5824 17.0833 56.14 18.0333 55.2551 18.75C54.3702 19.45 53.1013 19.8 51.4484 19.8C49.8289 19.8 48.3096 19.3917 46.8905 18.575Z" fill="#E8E8E8"/>
<path d="M68.8396 14.3H61.9275C61.9776 15.2167 62.1863 15.9417 62.5536 16.475C62.9376 16.9917 63.5971 17.25 64.5321 17.25C65.5004 17.25 66.6107 16.9667 67.8629 16.4C68.3471 16.9 68.6559 17.5583 68.7895 18.375C67.4538 19.325 65.851 19.8 63.9811 19.8C62.2113 19.8 60.8673 19.2583 59.949 18.175C59.0475 17.075 58.5967 15.45 58.5967 13.3C58.5967 12.3 58.7135 11.4 58.9473 10.6C59.181 9.78333 59.5233 9.09167 59.9741 8.525C60.4249 7.94167 60.9758 7.49167 61.627 7.175C62.2781 6.85833 63.0211 6.7 63.8559 6.7C64.7074 6.7 65.4587 6.83333 66.1098 7.1C66.761 7.35 67.3119 7.71667 67.7627 8.2C68.2135 8.66667 68.5474 9.225 68.7645 9.875C68.9982 10.525 69.1151 11.2333 69.1151 12C69.1151 12.4167 69.09 12.8167 69.04 13.2C68.9899 13.5667 68.9231 13.9333 68.8396 14.3ZM64.0061 9.05C62.7039 9.05 62.0026 10.0333 61.9025 12H66.0597V11.7C66.0597 10.9 65.8928 10.2583 65.5589 9.775C65.2249 9.29167 64.7074 9.05 64.0061 9.05Z" fill="#E8E8E8"/>
<path d="M82.5648 11.1V16.55C82.5648 17.6167 82.7401 18.4083 83.0907 18.925C82.5564 19.3917 81.9137 19.625 81.1623 19.625C80.4444 19.625 79.9519 19.4667 79.6847 19.15C79.4176 18.8167 79.284 18.3 79.284 17.6V11.775C79.284 11.025 79.1922 10.5 79.0086 10.2C78.8249 9.9 78.4826 9.75 77.9818 9.75C77.0969 9.75 76.2704 10.15 75.5024 10.95V19.45C75.252 19.5 74.9849 19.5333 74.701 19.55C74.4339 19.5667 74.1584 19.575 73.8746 19.575C73.5908 19.575 73.3069 19.5667 73.0231 19.55C72.756 19.5333 72.4972 19.5 72.2467 19.45V7.075L72.397 6.9H73.6492C74.5842 6.9 75.1685 7.4 75.4023 8.4C76.6211 7.35 77.8315 6.825 79.0336 6.825C80.2357 6.825 81.1206 7.21667 81.6883 8C82.2726 8.76667 82.5648 9.8 82.5648 11.1Z" fill="#E8E8E8"/>
<path d="M85.1918 18.575C85.2085 18.2083 85.3087 17.8083 85.4924 17.375C85.6927 16.925 85.9181 16.575 86.1686 16.325C87.4875 17.0417 88.6479 17.4 89.6497 17.4C90.2006 17.4 90.643 17.2917 90.977 17.075C91.3276 16.8583 91.5029 16.5667 91.5029 16.2C91.5029 15.6167 91.0521 15.15 90.1505 14.8L88.7481 14.275C86.6444 13.5083 85.5925 12.2833 85.5925 10.6C85.5925 10 85.7011 9.46667 85.9181 9C86.1519 8.51667 86.4691 8.10833 86.8698 7.775C87.2872 7.425 87.7797 7.15833 88.3474 6.975C88.915 6.79167 89.5495 6.7 90.2507 6.7C90.5679 6.7 90.9185 6.725 91.3025 6.775C91.7032 6.825 92.1039 6.9 92.5046 7C92.9053 7.08333 93.2894 7.18333 93.6567 7.3C94.024 7.41667 94.3412 7.54167 94.6083 7.675C94.6083 8.09167 94.5248 8.525 94.3579 8.975C94.1909 9.425 93.9655 9.75833 93.6817 9.975C92.3627 9.39167 91.2191 9.1 90.2507 9.1C89.8166 9.1 89.4743 9.20833 89.2239 9.425C88.9735 9.625 88.8482 9.89167 88.8482 10.225C88.8482 10.7417 89.2656 11.15 90.1004 11.45L91.6281 12C92.73 12.3833 93.5481 12.9083 94.0824 13.575C94.6167 14.2417 94.8838 15.0167 94.8838 15.9C94.8838 17.0833 94.4414 18.0333 93.5565 18.75C92.6716 19.45 91.4027 19.8 89.7498 19.8C88.1303 19.8 86.611 19.3917 85.1918 18.575Z" fill="#E8E8E8"/>
<path d="M107.141 14.3H100.229C100.279 15.2167 100.488 15.9417 100.855 16.475C101.239 16.9917 101.898 17.25 102.833 17.25C103.802 17.25 104.912 16.9667 106.164 16.4C106.648 16.9 106.957 17.5583 107.091 18.375C105.755 19.325 104.152 19.8 102.283 19.8C100.513 19.8 99.1687 19.2583 98.2504 18.175C97.3489 17.075 96.8981 15.45 96.8981 13.3C96.8981 12.3 97.015 11.4 97.2487 10.6C97.4824 9.78333 97.8247 9.09167 98.2755 8.525C98.7263 7.94167 99.2773 7.49167 99.9284 7.175C100.58 6.85833 101.322 6.7 102.157 6.7C103.009 6.7 103.76 6.83333 104.411 7.1C105.062 7.35 105.613 7.71667 106.064 8.2C106.515 8.66667 106.849 9.225 107.066 9.875C107.3 10.525 107.416 11.2333 107.416 12C107.416 12.4167 107.391 12.8167 107.341 13.2C107.291 13.5667 107.224 13.9333 107.141 14.3ZM102.308 9.05C101.005 9.05 100.304 10.0333 100.204 12H104.361V11.7C104.361 10.9 104.194 10.2583 103.86 9.775C103.526 9.29167 103.009 9.05 102.308 9.05Z" fill="#E8E8E8"/>
<path d="M111.024 22.95V0.0750005C111.274 0.0250002 111.558 0 111.875 0C112.209 0 112.518 0.0250002 112.802 0.0750005V22.95C112.518 23 112.209 23.025 111.875 23.025C111.558 23.025 111.274 23 111.024 22.95Z" fill="#E8E8E8"/>
</svg>
